# xmcd CD database file
#
# Track frame offsets:
#	150
#	9275
#	22806
#	36257
#	47227
#	57275
#	71944
#	83874
#	97821
#	107377
#	121860
#	134348
#	144041
#	149772
#	162214
#
# Disc length: 2330 seconds
#
# Revision: 2
# Processed by: cddbd v1.5.2PL0 Copyright (c) Steve Scherf et al.
# Submitted via: cdripper 1,0,39,0213
#
DISCID=c109180f
DTITLE=Various Artist - Simply Country  CD2
DYEAR=2004
DGENRE=Country
TTITLE0=Jerry Lee Lewis - Jambalaya
TTITLE1=Anne Murray - There Goes My Everything
TTITLE2=Patti Page - Tennessee Waltz, The
TTITLE3=Johnny Cash - I Love You Because
TTITLE4=Kitty Wells - I Can't Stop Loving You
TTITLE5=Lynn Anderson - Faithless Love
TTITLE6=Skeeter Davis - End Of The World, The
TTITLE7=Rita Remington - Angel Of The Morning
TTITLE8=Dave Dudley - Six Days On The Road
TTITLE9=Jeannie C. Riley - Harper Valley P.T.A.
TTITLE10=Leroy Van Dyke - Auctioneer, The
TTITLE11=Ned Miller - From A Jack To A King
TTITLE12=Loretta Lynn - Pill, The [Live]
TTITLE13=Lynn Anderson - Stand By Your Man
TTITLE14=Charley Pride - Help Me Make It Through The Night [Live]
EXTD=YEAR: 2004
EXTT0=
EXTT1=
EXTT2=
EXTT3=
EXTT4=
EXTT5=
EXTT6=
EXTT7=
EXTT8=
EXTT9=
EXTT10=
EXTT11=
EXTT12=
EXTT13=
EXTT14=
PLAYORDER=
